<svg width="15" height="15" viewBox="0 0 15 15" fill="none" xmlns="http://www.w3.org/2000/svg">
<path fill-rule="evenodd" clip-rule="evenodd" d="M7.7786 14.3896C3.9558 14.3896 0.857147 11.1715 0.857147 7.2013C0.857147 3.2311 3.9558 0.0129852 7.7786 0.0129852C11.6014 0.0129852 14.7001 3.2311 14.7001 7.2013C14.7001 11.1715 11.6014 14.3896 7.7786 14.3896ZM11.2367 7.29969L7.99403 1.81006L4.75046 7.30014L7.99403 9.25581L11.2367 7.29969ZM11.2393 7.92732L7.99403 9.88209L4.75046 7.92777L7.99403 12.5903L11.2393 7.92732Z" fill="#3A3A3A"/>
<path d="M7.99402 1.81006V5.79508L11.2372 7.30014L7.99402 1.81006ZM7.99402 9.88254V12.5903L11.2393 7.92732L7.99402 9.88254Z" fill="white" fill-opacity="0.298"/>
<path d="M7.99402 9.25581L11.2372 7.30014L7.99402 5.79598V9.25581Z" fill="white" fill-opacity="0.801"/>
<path d="M4.75046 7.30014L7.99402 9.25581V5.79598L4.75046 7.30014Z" fill="white" fill-opacity="0.298"/>
</svg>
