<svg width="21" height="21" viewBox="0 0 21 21" fill="none" xmlns="http://www.w3.org/2000/svg">
<path fill-rule="evenodd" clip-rule="evenodd" d="M3.73116 11.9404V11.7655C3.75682 11.248 3.92267 10.7466 4.2116 10.313C4.69254 9.79212 5.02176 9.15384 5.16474 8.4651C5.16474 7.93278 5.16474 7.39286 5.21123 6.86054C5.45145 4.29782 7.9854 2.52597 10.4884 2.52597H10.5503C13.0533 2.52597 15.5873 4.29782 15.8352 6.86054C15.8817 7.39286 15.8352 7.93278 15.874 8.4651C16.0189 9.15543 16.3478 9.79571 16.8271 10.3206C17.1182 10.7504 17.2843 11.2499 17.3075 11.7655V11.9328C17.3248 12.628 17.0854 13.3059 16.6334 13.8415C16.0361 14.4677 15.2255 14.8573 14.3551 14.9365C11.803 15.2103 9.22799 15.2103 6.67581 14.9365C5.80644 14.8539 4.99705 14.4649 4.39758 13.8415C3.95254 13.3055 3.71631 12.6316 3.73116 11.9404Z" stroke="#9D9D9D" stroke-width="1.19805" stroke-linecap="round" stroke-linejoin="round"/>
<path d="M8.56659 17.5829C8.96536 18.0834 9.55096 18.4074 10.1938 18.483C10.8366 18.5587 11.4836 18.3798 11.9917 17.986C12.1479 17.8695 12.2885 17.7341 12.4101 17.5829" stroke="#9D9D9D" stroke-width="1.19805" stroke-linecap="round" stroke-linejoin="round"/>
</svg>
